<svg height="28" width="137" xmlns="http://www.w3.org/2000/svg" viewBox="0 0 101.41 40.66"><defs><style>.cls-1{fill:#222226;}.cls-2{fill:#01e385;}</style></defs><title>ENULS-Black</title><g id="图层_2" data-name="图层 2"><g id="图层_1-2" data-name="图层 1"><path class="cls-1" d="M100.71,20.85a4.91,4.91,0,0,0-1.83-1.33,11.7,11.7,0,0,0-3.68-.91,4,4,0,0,1-1.33-.29,1.48,1.48,0,0,1-.62-.57A1.18,1.18,0,0,1,94,16a3.58,3.58,0,0,1,1.26-.16,2,2,0,0,1,2,2.1l3.92,0c0-5-5.88-5-5.88-5A6.9,6.9,0,0,0,91,14.17a4.23,4.23,0,0,0-1.54,2.57,3.78,3.78,0,0,0,.64,3.12,4.79,4.79,0,0,0,1.66,1.26,10.64,10.64,0,0,0,3.59.93,3.88,3.88,0,0,1,1.35.28,1.62,1.62,0,0,1,.62.57,1.19,1.19,0,0,1-.79,1.72,3.83,3.83,0,0,1-1.26.16,2,2,0,0,1-2-2.1H89.19c0,5,6.11,5,6.13,5a8.26,8.26,0,0,0,3.29-.59,4.65,4.65,0,0,0,2.51-2.55A3.71,3.71,0,0,0,100.71,20.85Z"/><path class="cls-1" d="M71.24,14.07v7.77a2,2,0,0,1-2,2h0a2,2,0,0,1-2-2V14.07a.93.93,0,0,0-.93-.93H63.07v9.17c0,3.38,2.75,5.19,6.13,5.19h0c3.39,0,6.13-1.81,6.13-5.19V13.14H72.18a.94.94,0,0,0-.94.93Z"/><path class="cls-1" d="M47.65,27.26V13.14h2.74a.93.93,0,0,1,.74.36l4.7,6.71V14.07a.93.93,0,0,1,.93-.93h3.15V27.26H57.18a.93.93,0,0,1-.74-.36l-4.7-6.58v6.94Z"/><path class="cls-1" d="M78.49,27.27V13.14h3.15a.93.93,0,0,1,.93.93h0v10h5v3.2Z"/><path class="cls-1" d="M44.46,16.33V14.07a.93.93,0,0,0-.93-.93h-9.3V27.26H44.46V25a.93.93,0,0,0-.93-.93H38.32V21.64h6.14V19.69a.93.93,0,0,0-.93-.93H38.32V16.33Z"/><path class="cls-2" d="M25.81,0h0a0,0,0,0,1,0,0V15.27A10.21,10.21,0,0,1,15.61,25.47h0a0,0,0,0,1,0,0V10.21A10.21,10.21,0,0,1,25.81,0Z"/><path class="cls-2" d="M10.21,15.18h0a0,0,0,0,1,0,0V30.45A10.21,10.21,0,0,1,0,40.66H0a0,0,0,0,1,0,0V25.39A10.21,10.21,0,0,1,10.21,15.18Z"/></g></g></svg>
